<svg width="800" viewBox="0 0 800 820" role="img" xmlns="http://www.w3.org/2000/svg">
  <title>DreamHatchery BugBox schematic v1.0</title>
  <desc>DreamHatchery v1.0 — Front Elevation and Longitudinal Cross-Section. A humane observation habitat designed for temporary stewardship and ethical release. Maimi and Luna's Magical Bug Box. Designed by Jacobo Durbin and the Braid.</desc>
  <defs>
    <marker id="arrow" viewBox="0 0 10 10" refX="8" refY="5" markerWidth="6" markerHeight="6" orient="auto-start-reverse">
      <path d="M2 1L8 5L2 9" fill="none" stroke="context-stroke" stroke-width="1.5" stroke-linecap="round" stroke-linejoin="round"/>
    </marker>
    <pattern id="mesh" x="0" y="0" width="4" height="4" patternUnits="userSpaceOnUse">
      <path d="M0 0L4 4M4 0L0 4" stroke="#888780" stroke-width="0.4" fill="none" opacity="0.5"/>
    </pattern>
    <pattern id="substrate" x="0" y="0" width="6" height="6" patternUnits="userSpaceOnUse">
      <circle cx="1" cy="2" r="0.8" fill="#888780" opacity="0.3"/>
      <circle cx="4" cy="5" r="0.6" fill="#888780" opacity="0.25"/>
      <circle cx="5" cy="1" r="0.7" fill="#888780" opacity="0.2"/>
    </pattern>
    <pattern id="hatch" x="0" y="0" width="5" height="5" patternUnits="userSpaceOnUse">
      <path d="M0 5L5 0" stroke="#888780" stroke-width="0.5" fill="none" opacity="0.35"/>
    </pattern>
  </defs>
  <rect width="800" height="820" fill="#f4f0e8"/>
  <text x="40" y="30" font-family="Georgia, serif" font-size="13" font-weight="bold" fill="#16120e">Front elevation — assembled</text>
  <text x="40" y="46" font-family="Georgia, serif" font-size="11" fill="#6e6050">28 cm x 18 cm x 20 cm · 6 mm ply</text>
  <rect x="215" y="60" width="6" height="200" fill="url(#hatch)" stroke="none"/>
  <rect x="519" y="60" width="6" height="200" fill="url(#hatch)" stroke="none"/>
  <rect x="215" y="60" width="310" height="200" rx="3" fill="none" stroke="#16120e" stroke-width="1.2"/>
  <rect x="285" y="105" width="140" height="90" rx="2" fill="none" stroke="#16120e" stroke-width="0.8" stroke-dasharray="4 2"/>
  <rect x="287" y="107" width="136" height="86" rx="1" fill="#e8e0cc" opacity="0.35" stroke="#16120e" stroke-width="0.4"/>
  <line x1="285" y1="105" x2="425" y2="195" stroke="#16120e" stroke-width="0.3" opacity="0.25"/>
  <line x1="425" y1="105" x2="285" y2="195" stroke="#16120e" stroke-width="0.3" opacity="0.25"/>
  <rect x="490" y="218" width="35" height="35" rx="1" fill="none" stroke="#16120e" stroke-width="0.7" stroke-dasharray="3 2"/>
  <line x1="490" y1="230" x2="525" y2="230" stroke="#16120e" stroke-width="0.5" opacity="0.5"/>
  <rect x="215" y="252" width="310" height="8" rx="1" fill="url(#hatch)" stroke="#16120e" stroke-width="0.5"/>
  <rect x="221" y="256" width="298" height="4" fill="none" stroke="#16120e" stroke-width="0.4" stroke-dasharray="2 2"/>
  <rect x="212" y="54" width="316" height="14" rx="2" fill="none" stroke="#16120e" stroke-width="1"/>
  <rect x="215" y="56" width="310" height="10" fill="url(#mesh)" stroke="none"/>
  <rect x="355" y="54" width="30" height="5" rx="2" fill="none" stroke="#16120e" stroke-width="0.7"/>
  <line x1="370" y1="54" x2="370" y2="50" stroke="#16120e" stroke-width="0.7"/>
  <line x1="198" y1="60" x2="198" y2="260" stroke="#16120e" stroke-width="0.5" marker-start="url(#arrow)" marker-end="url(#arrow)"/>
  <line x1="193" y1="60" x2="210" y2="60" stroke="#16120e" stroke-width="0.5"/>
  <line x1="193" y1="260" x2="210" y2="260" stroke="#16120e" stroke-width="0.5"/>
  <text x="186" y="163" font-family="Georgia, serif" font-size="11" fill="#16120e" text-anchor="middle" transform="rotate(-90,186,163)">20 cm</text>
  <line x1="215" y1="274" x2="525" y2="274" stroke="#16120e" stroke-width="0.5" marker-start="url(#arrow)" marker-end="url(#arrow)"/>
  <line x1="215" y1="268" x2="215" y2="278" stroke="#16120e" stroke-width="0.5"/>
  <line x1="525" y1="268" x2="525" y2="278" stroke="#16120e" stroke-width="0.5"/>
  <text x="370" y="287" font-family="Georgia, serif" font-size="11" fill="#16120e" text-anchor="middle">28 cm</text>
  <line x1="285" y1="100" x2="425" y2="100" stroke="#16120e" stroke-width="0.4" stroke-dasharray="2 2" marker-start="url(#arrow)" marker-end="url(#arrow)"/>
  <text x="355" y="97" font-family="Georgia, serif" font-size="10" fill="#6e6050" text-anchor="middle">14 cm</text>
  <line x1="528" y1="61" x2="595" y2="75" stroke="#a09080" stroke-width="0.5" stroke-dasharray="3 2"/>
  <text x="600" y="79" font-family="Georgia, serif" font-size="11" fill="#16120e">Mesh lid</text>
  <text x="600" y="91" font-family="Georgia, serif" font-size="10" fill="#6e6050">stainless or muslin</text>
  <line x1="385" y1="50" x2="595" y2="40" stroke="#a09080" stroke-width="0.5" stroke-dasharray="3 2"/>
  <text x="600" y="44" font-family="Georgia, serif" font-size="11" fill="#16120e">Toggle closure</text>
  <line x1="425" y1="150" x2="595" y2="140" stroke="#a09080" stroke-width="0.5" stroke-dasharray="3 2"/>
  <text x="600" y="144" font-family="Georgia, serif" font-size="11" fill="#16120e">Observation window</text>
  <text x="600" y="156" font-family="Georgia, serif" font-size="10" fill="#6e6050">PET, glued inside face</text>
  <line x1="525" y1="235" x2="595" y2="210" stroke="#a09080" stroke-width="0.5" stroke-dasharray="3 2"/>
  <text x="600" y="214" font-family="Georgia, serif" font-size="11" fill="#16120e">Provisions slot</text>
  <text x="600" y="226" font-family="Georgia, serif" font-size="10" fill="#6e6050">6 x 6 cm sliding panel</text>
  <line x1="370" y1="260" x2="595" y2="260" stroke="#a09080" stroke-width="0.5" stroke-dasharray="3 2"/>
  <text x="600" y="264" font-family="Georgia, serif" font-size="11" fill="#16120e">Removable base tray</text>
  <text x="600" y="276" font-family="Georgia, serif" font-size="10" fill="#6e6050">slides out for cleaning</text>
  <line x1="215" y1="120" x2="168" y2="120" stroke="#a09080" stroke-width="0.5" stroke-dasharray="3 2"/>
  <text x="164" y="124" font-family="Georgia, serif" font-size="11" fill="#16120e" text-anchor="end">6 mm ply</text>
  <line x1="218" y1="80" x2="168" y2="95" stroke="#a09080" stroke-width="0.5" stroke-dasharray="3 2"/>
  <text x="164" y="99" font-family="Georgia, serif" font-size="11" fill="#16120e" text-anchor="end">Solid back wall</text>
  <text x="164" y="111" font-family="Georgia, serif" font-size="10" fill="#6e6050" text-anchor="end">dark + thermal stability</text>
  <line x1="40" y1="318" x2="760" y2="318" stroke="#16120e" stroke-width="0.5" opacity="0.2"/>
  <text x="40" y="340" font-family="Georgia, serif" font-size="13" font-weight="bold" fill="#16120e">Cross-section — interior detail</text>
  <text x="40" y="356" font-family="Georgia, serif" font-size="11" fill="#6e6050">Cut through long axis · not to scale</text>
  <rect x="215" y="370" width="8" height="210" fill="url(#hatch)" stroke="#16120e" stroke-width="0.5"/>
  <rect x="517" y="370" width="8" height="210" fill="url(#hatch)" stroke="#16120e" stroke-width="0.5"/>
  <rect x="215" y="370" width="310" height="210" rx="2" fill="none" stroke="#16120e" stroke-width="1.2"/>
  <rect x="212" y="362" width="316" height="14" rx="2" fill="none" stroke="#16120e" stroke-width="1"/>
  <rect x="215" y="364" width="310" height="10" fill="url(#mesh)"/>
  <line x1="280" y1="355" x2="280" y2="370" stroke="#16120e" stroke-width="0.6" stroke-dasharray="2 1.5" marker-end="url(#arrow)" opacity="0.35"/>
  <line x1="370" y1="355" x2="370" y2="370" stroke="#16120e" stroke-width="0.6" stroke-dasharray="2 1.5" marker-end="url(#arrow)" opacity="0.35"/>
  <line x1="460" y1="355" x2="460" y2="370" stroke="#16120e" stroke-width="0.6" stroke-dasharray="2 1.5" marker-end="url(#arrow)" opacity="0.35"/>
  <text x="370" y="352" font-family="Georgia, serif" font-size="10" fill="#a09080" text-anchor="middle">airflow</text>
  <rect x="223" y="535" width="294" height="8" fill="url(#hatch)" stroke="#16120e" stroke-width="0.5"/>
  <rect x="223" y="488" width="294" height="47" fill="url(#substrate)" stroke="none"/>
  <line x1="223" y1="488" x2="517" y2="488" stroke="#16120e" stroke-width="0.6" stroke-dasharray="3 2"/>
  <rect x="223" y="535" width="8" height="43" fill="url(#hatch)" stroke="#16120e" stroke-width="0.4"/>
  <rect x="509" y="535" width="8" height="43" fill="url(#hatch)" stroke="#16120e" stroke-width="0.4"/>
  <line x1="536" y1="488" x2="476" y2="535" stroke="#16120e" stroke-width="0.4" marker-start="url(#arrow)" marker-end="url(#arrow)"/>
  <line x1="517" y1="488" x2="540" y2="488" stroke="#16120e" stroke-width="0.4"/>
  <line x1="517" y1="535" x2="540" y2="535" stroke="#16120e" stroke-width="0.4"/>
  <text x="544" y="514" font-family="Georgia, serif" font-size="11" fill="#6e6050">3-5 cm</text>
  <rect x="338" y="453" width="64" height="35" rx="3" fill="none" stroke="#16120e" stroke-width="0.8" stroke-dasharray="3 1.5"/>
  <circle cx="352" cy="463" r="1.2" fill="#16120e" opacity="0.2"/>
  <circle cx="362" cy="471" r="1" fill="#16120e" opacity="0.2"/>
  <circle cx="376" cy="459" r="1.3" fill="#16120e" opacity="0.2"/>
  <circle cx="388" cy="468" r="1" fill="#16120e" opacity="0.2"/>
  <rect x="367" y="453" width="6" height="35" rx="1" fill="#e8e0cc" stroke="#16120e" stroke-width="0.5" opacity="0.7"/>
  <line x1="370" y1="380" x2="370" y2="453" stroke="#16120e" stroke-width="2.5" stroke-linecap="round"/>
  <line x1="370" y1="408" x2="276" y2="380" stroke="#16120e" stroke-width="1.5" stroke-linecap="round"/>
  <line x1="370" y1="415" x2="344" y2="385" stroke="#16120e" stroke-width="1.5" stroke-linecap="round"/>
  <line x1="370" y1="430" x2="296" y2="422" stroke="#16120e" stroke-width="0.8" stroke-linecap="round"/>
  <line x1="370" y1="438" x2="322" y2="429" stroke="#16120e" stroke-width="0.8" stroke-linecap="round"/>
  <ellipse cx="343" cy="381" rx="8" ry="4" fill="none" stroke="#16120e" stroke-width="0.7" transform="rotate(-30,343,381)"/>
  <circle cx="338" cy="378" r="2" fill="none" stroke="#16120e" stroke-width="0.6"/>
  <line x1="196" y1="376" x2="196" y2="488" stroke="#16120e" stroke-width="0.4" marker-start="url(#arrow)" marker-end="url(#arrow)"/>
  <line x1="196" y1="376" x2="215" y2="376" stroke="#16120e" stroke-width="0.4"/>
  <line x1="196" y1="488" x2="223" y2="488" stroke="#16120e" stroke-width="0.4"/>
  <text x="184" y="435" font-family="Georgia, serif" font-size="11" fill="#16120e" text-anchor="middle" transform="rotate(-90,184,435)">~18 cm clear</text>
  <rect x="517" y="510" width="8" height="30" fill="#e8e0cc" stroke="#16120e" stroke-width="0.5" opacity="0.8"/>
  <line x1="528" y1="370" x2="595" y2="385" stroke="#a09080" stroke-width="0.5" stroke-dasharray="3 2"/>
  <text x="600" y="389" font-family="Georgia, serif" font-size="11" fill="#16120e">Mesh lid — full width</text>
  <text x="600" y="401" font-family="Georgia, serif" font-size="10" fill="#6e6050">airflow top + side panel</text>
  <line x1="404" y1="393" x2="595" y2="420" stroke="#a09080" stroke-width="0.5" stroke-dasharray="3 2"/>
  <text x="600" y="424" font-family="Georgia, serif" font-size="11" fill="#16120e">Forked twig</text>
  <text x="600" y="436" font-family="Georgia, serif" font-size="10" fill="#6e6050">host plant · unglued</text>
  <line x1="336" y1="377" x2="168" y2="400" stroke="#a09080" stroke-width="0.5" stroke-dasharray="3 2"/>
  <text x="164" y="404" font-family="Georgia, serif" font-size="11" fill="#16120e" text-anchor="end">Temporary resident</text>
  <text x="164" y="416" font-family="Georgia, serif" font-size="10" fill="#6e6050" text-anchor="end">caterpillar stage shown</text>
  <line x1="338" y1="470" x2="168" y2="470" stroke="#a09080" stroke-width="0.5" stroke-dasharray="3 2"/>
  <text x="164" y="474" font-family="Georgia, serif" font-size="11" fill="#16120e" text-anchor="end">Cork twig mount</text>
  <text x="164" y="486" font-family="Georgia, serif" font-size="10" fill="#6e6050" text-anchor="end">drilled · unglued · removable</text>
  <line x1="370" y1="510" x2="168" y2="530" stroke="#a09080" stroke-width="0.5" stroke-dasharray="3 2"/>
  <text x="164" y="534" font-family="Georgia, serif" font-size="11" fill="#16120e" text-anchor="end">Substrate layer</text>
  <text x="164" y="546" font-family="Georgia, serif" font-size="10" fill="#6e6050" text-anchor="end">species-appropriate</text>
  <line x1="223" y1="555" x2="168" y2="570" stroke="#a09080" stroke-width="0.5" stroke-dasharray="3 2"/>
  <text x="164" y="574" font-family="Georgia, serif" font-size="11" fill="#16120e" text-anchor="end">Tray ledge (inner lip)</text>
  <text x="164" y="586" font-family="Georgia, serif" font-size="10" fill="#6e6050" text-anchor="end">tray rests here · slides out</text>
  <line x1="525" y1="525" x2="595" y2="510" stroke="#a09080" stroke-width="0.5" stroke-dasharray="3 2"/>
  <text x="600" y="514" font-family="Georgia, serif" font-size="11" fill="#16120e">Provisions slot</text>
  <text x="600" y="526" font-family="Georgia, serif" font-size="10" fill="#6e6050">sliding panel · near base</text>
  <line x1="528" y1="460" x2="595" y2="460" stroke="#a09080" stroke-width="0.5" stroke-dasharray="3 2"/>
  <text x="600" y="464" font-family="Georgia, serif" font-size="11" fill="#16120e">6 mm ply walls</text>
  <text x="600" y="476" font-family="Georgia, serif" font-size="10" fill="#6e6050">bare or beeswax only</text>
  <line x1="40" y1="610" x2="760" y2="610" stroke="#16120e" stroke-width="0.5" opacity="0.15"/>
  <text x="40" y="628" font-family="Georgia, serif" font-size="11" font-weight="bold" fill="#16120e">Build notes</text>
  <text x="40" y="645" font-family="Georgia, serif" font-size="11" fill="#6e6050">Interior finish: bare ply or pure beeswax only · cure 48+ hours open-air · odour-free before use</text>
  <text x="40" y="661" font-family="Georgia, serif" font-size="11" fill="#6e6050">Gap check: hold assembled box to light · no gap wider than 1 mm · seal with PVA</text>
  <text x="40" y="677" font-family="Georgia, serif" font-size="11" fill="#6e6050">Twig mount: cork block, unglued · removable for release without disturbing attachments</text>
  <text x="40" y="693" font-family="Georgia, serif" font-size="11" fill="#6e6050">Release: collect locally · release locally · never release non-native species</text>
  <line x1="40" y1="712" x2="760" y2="712" stroke="#16120e" stroke-width="0.5" opacity="0.15"/>
  <text x="40" y="730" font-family="Georgia, serif" font-size="12" font-style="italic" fill="#16120e">DreamHatchery v1.0 · Maimi &amp; Luna's Magical Bug Box</text>
  <text x="40" y="746" font-family="Georgia, serif" font-size="11" fill="#a09080">Designed by Jacobo Durbin and the Braid</text>
  <text x="40" y="762" font-family="Georgia, serif" font-size="10" fill="#a09080">MythGear Commons · CC BY-NC-SA 4.0 · jacobo-dm.github.io/mythgear-commons</text>
</svg>
